<svg version="1.2" xmlns="http://www.w3.org/2000/svg" viewBox="0 0 219 146" width="219" height="146">
	<title>advansia_logo-svg</title>
	<style>
		.s0 { fill: #000000 } 
	</style>
	<path id="Layer" fill-rule="evenodd" class="s0" d="m215.8 95.5v2.3h-1.2v-2.3l-2.7-4.5h1.3l2 3.3 2-3.3h1.4zm-11.1 0v2.3h-1.2v-6.8h2.8q0.2 0 0.5 0 0.3 0 0.5 0.1 0.2 0.1 0.5 0.2 0.2 0.1 0.4 0.3 0.2 0.2 0.3 0.3 0.2 0.2 0.2 0.4 0.1 0.3 0.2 0.5 0 0.2 0 0.4 0 0.4-0.1 0.7-0.1 0.4-0.3 0.7-0.2 0.3-0.5 0.5-0.3 0.2-0.6 0.3l2 2.4h-1.5l-1.8-2.2zm1.6-1.2c0.9 0 1.5-0.4 1.5-1.1 0-0.7-0.6-1.2-1.5-1.2h-1.5v2.4zm-9.9-0.4h3.2v1.1h-3.2v2.6h-1.2v-6.8h4.9v1.1h-3.7zm-9.7 2.3l-0.6 1.5h-1.3l3-6.9h1.1l3 6.9h-1.3l-0.7-1.5zm1.7-3.9l-1.2 2.8h2.3zm-14.6 1.6h3.2v1.1h-3.3v2.7h-1.2v-6.8h4.9v1.1h-3.7zm-7.9-3.5c1 0 1.9 0.4 2.6 1.1 0.7 0.7 1.1 1.7 1.1 2.7-0.1 1-0.5 1.9-1.3 2.5-0.7 0.6-1.6 0.9-2.4 0.8-0.9 0-1.8-0.4-2.4-1-0.6-0.6-1-1.5-1-2.3-0.1-0.9 0.2-1.8 0.8-2.5 0.6-0.7 1.6-1.2 2.6-1.3zm0.4 6.2q0.2 0 0.4-0.1 0.2-0.1 0.4-0.2 0.2-0.2 0.4-0.3 0.1-0.2 0.3-0.4 0.1-0.2 0.2-0.4 0.1-0.3 0.1-0.5 0-0.2 0-0.5 0-0.2 0-0.4 0-0.3-0.1-0.5-0.1-0.2-0.2-0.4-0.2-0.2-0.3-0.4-0.4-0.3-0.8-0.5-0.4-0.2-0.9-0.2-0.5 0-0.9 0.2-0.4 0.2-0.7 0.5-0.2 0.2-0.3 0.4-0.2 0.2-0.3 0.4 0 0.2-0.1 0.5 0 0.2 0 0.4 0 0.3 0 0.5 0.1 0.2 0.1 0.5 0.1 0.2 0.3 0.4 0.1 0.2 0.3 0.4 0.1 0.1 0.3 0.3 0.2 0.1 0.4 0.2 0.2 0.1 0.4 0.1 0.3 0.1 0.5 0.1 0.2 0 0.5-0.1zm-14.3-4.7v5.7h-1.2v-5.7h-2.4v-1.1h6v1.1zm-11 3.5v2.2h-1.2v-6.8h2.8q0.2 0 0.5 0 0.2 0.1 0.5 0.2 0.2 0 0.4 0.2 0.3 0.1 0.5 0.3 0.1 0.1 0.3 0.3 0.1 0.2 0.2 0.4 0.1 0.2 0.2 0.4 0 0.3 0 0.5 0 0.4-0.1 0.7-0.1 0.3-0.3 0.6-0.2 0.3-0.5 0.5-0.3 0.2-0.7 0.3l2 2.4h-1.4l-1.9-2.2zm1.6-1.1c0.9 0 1.5-0.5 1.5-1.2 0-0.7-0.6-1.2-1.5-1.2h-1.5v2.4zm-11.1 1.9l-0.6 1.5h-1.3l3-6.9h1.1l3 6.9h-1.2l-0.7-1.5zm1.7-3.9l-1.2 2.8h2.3zm-8.6-1.5q0.3 0 0.6 0 0.2 0.1 0.5 0.2 0.2 0 0.5 0.2 0.2 0.1 0.4 0.3 0.2 0.1 0.4 0.3 0.1 0.2 0.2 0.4 0.1 0.3 0.1 0.5 0.1 0.2 0.1 0.5 0 0.2-0.1 0.5 0 0.2-0.1 0.5-0.1 0.2-0.3 0.4-0.1 0.2-0.3 0.4-0.2 0.1-0.5 0.3-0.2 0.1-0.5 0.2-0.3 0.1-0.5 0.1-0.3 0.1-0.6 0h-1.2v2h-1.2v-6.8zm0 3.7q0.3 0.1 0.6 0 0.2-0.1 0.5-0.3 0.2-0.2 0.3-0.5 0.1-0.2 0.1-0.5c0-0.8-0.6-1.3-1.5-1.3h-1.3v2.6z"/>
	<path id="Layer" fill-rule="evenodd" class="s0" d="m45.4 48.4c11.9 0 16.4 5.8 16.4 14.9 0 9.7-5.3 15.8-16.6 15.8h-8.5q-0.1 0-0.1 0-0.1-0.1-0.2-0.1 0-0.1-0.1-0.2 0 0 0-0.1v-29.8q0-0.1 0-0.2 0.1-0.1 0.1-0.2 0.1 0 0.2-0.1 0 0 0.1 0h8.7m12 15.2c0-7.6-3.5-11.6-12.8-11.6h-4.3v23.6h4.3c8.9 0 12.8-4 12.8-12z"/>
	<path id="Layer" class="s0" d="m188.3 48.4h-3.1q-0.1 0-0.2 0-0.1 0.1-0.1 0.1-0.1 0.1-0.1 0.2-0.1 0.1-0.1 0.2v29.7q0 0.1 0.1 0.2 0 0.1 0.1 0.2 0 0 0.1 0.1 0.1 0 0.2 0h3.1q0.1 0 0.2 0 0.1-0.1 0.2-0.1 0-0.1 0.1-0.2 0-0.1 0-0.2v-29.7q0-0.1 0-0.2-0.1-0.1-0.1-0.2-0.1 0-0.2-0.1-0.1 0-0.2 0z"/>
	<path id="Layer" class="s0" d="m24.9 48.7c-1.3-0.7-2.8 0-3.7 1.2l-21.1 28.5q-0.1 0.1-0.1 0.2 0 0.1 0 0.3 0.1 0.1 0.2 0.1 0.1 0.1 0.3 0.1h3.9q0 0 0.1 0 0 0 0.1-0.1 0 0 0.1 0 0-0.1 0-0.1l3.8-5.3h9.3q0.1 0 0.2-0.1 0.2 0 0.3-0.1 0.1-0.1 0.1-0.3 0.1-0.1 0.1-0.2v-2q0-0.1-0.1-0.2 0-0.2-0.1-0.3-0.1-0.1-0.3-0.1-0.1-0.1-0.2-0.1h-6.8l11.6-16.2-0.2 24.6q0 0.1 0 0.2 0.1 0.1 0.1 0.2 0.1 0 0.2 0.1 0.1 0 0.2 0h3q0.1 0 0.1 0 0.1-0.1 0.2-0.1 0.1-0.1 0.1-0.2 0-0.1 0-0.2v-26.7c0-1.8-0.5-2.7-1.4-3.2z"/>
	<path id="Layer" class="s0" d="m148.2 48.4h-3.1q-0.1 0-0.2 0-0.1 0.1-0.1 0.1-0.1 0.1-0.1 0.2-0.1 0.1-0.1 0.2l0.2 24.6-17.3-23.9q-0.4-0.5-0.8-0.7-0.4-0.3-0.9-0.4-0.5-0.2-1.1-0.1-0.5 0.1-0.9 0.3-0.4 0.2-0.7 0.5-0.2 0.3-0.4 0.7-0.2 0.3-0.3 0.7-0.1 0.4-0.1 0.8l-0.1 27.2q0 0.1 0 0.2 0 0.1 0.1 0.2 0.1 0 0.2 0.1 0 0 0.1 0h3.2q0 0 0.1 0 0.1-0.1 0.2-0.1 0.1-0.1 0.1-0.2 0-0.1 0-0.2l-0.2-24.5 16.8 22.8c0.9 1.3 1.7 2.6 4.1 2q0.4-0.1 0.7-0.4 0.4-0.3 0.6-0.7 0.2-0.3 0.3-0.8 0.1-0.4 0.1-0.8l0.1-27.3q0-0.1 0-0.2-0.1-0.1-0.1-0.2-0.1 0-0.2-0.1-0.1 0-0.2 0z"/>
	<path id="Layer" class="s0" d="m168.3 61.9l-1.5-0.5c-4.3-1.4-5.5-2.6-5.5-5.2 0-2.7 1.8-4.6 5.8-4.6q0.8 0.1 1.7 0.2 0.8 0.1 1.6 0.2 0.8 0.2 1.6 0.4 0.8 0.3 1.6 0.6 0.1 0 0.3 0 0.1 0 0.2-0.1 0.1 0 0.2-0.1 0-0.2 0-0.3v-2.4q0-0.1 0-0.2 0-0.1-0.1-0.3-0.1-0.1-0.2-0.1-0.1-0.1-0.2-0.2-0.8-0.3-1.7-0.5-0.8-0.3-1.7-0.5-0.9-0.1-1.8-0.2-0.8-0.1-1.7-0.1c-6 0-9.7 3-9.7 8.5 0 4.9 2.5 6.8 8.4 8.8l1.5 0.4c4.3 1.5 5.3 2.8 5.3 5 0 3.2-2.4 5.2-6.8 5.2q-1.1 0-2.1-0.1-1-0.1-2.1-0.4-1-0.2-2-0.6-1-0.3-1.9-0.8-0.1 0-0.3 0-0.1 0-0.2 0.1-0.1 0-0.2 0.1-0.1 0.2-0.1 0.3v2.5q0 0.1 0.1 0.2 0 0.1 0 0.3 0.1 0.1 0.2 0.1 0.1 0.1 0.2 0.2 0.9 0.4 1.9 0.7 1 0.4 2.1 0.6 1 0.2 2 0.3 1.1 0.1 2.1 0.1c7.2 0 11.2-3.4 11.2-9 0-4.3-2.1-6.6-8.2-8.6z"/>
	<path id="Layer" class="s0" d="m111 48.7c-1.3-0.7-2.7 0-3.6 1.2l-21.1 28.5q-0.1 0.1-0.1 0.2-0.1 0.1 0 0.3 0.1 0.1 0.2 0.1 0.1 0.1 0.2 0.1h3.9q0.1 0 0.1 0 0.1 0 0.1-0.1 0.1 0 0.1 0 0-0.1 0.1-0.1l3.8-5.3h9.2q0.1 0 0.3-0.1 0.1 0 0.2-0.1 0.1-0.1 0.2-0.3 0-0.1 0-0.2v-2q0-0.1 0-0.2-0.1-0.2-0.2-0.3-0.1-0.1-0.2-0.1-0.2-0.1-0.3-0.1h-6.8l11.6-16.2-0.2 24.6q0 0.1 0.1 0.2 0 0.1 0.1 0.2 0.1 0 0.1 0.1 0.1 0 0.2 0h3q0.1 0 0.2 0 0.1-0.1 0.2-0.1 0-0.1 0.1-0.2 0-0.1 0-0.2v-26.7c0-1.8-0.6-2.7-1.5-3.2z"/>
	<path id="Layer" class="s0" d="m217.1 48.7c-1.3-0.7-2.8 0-3.7 1.2l-21.1 28.5q-0.1 0.1-0.1 0.2 0 0.1 0 0.3 0.1 0.1 0.2 0.1 0.1 0.1 0.3 0.1h3.8q0.1 0 0.1 0 0.1 0 0.1-0.1 0.1 0 0.1 0 0.1-0.1 0.1-0.1l3.8-5.3h9.2q0.2 0 0.3-0.1 0.1 0 0.2-0.1 0.1-0.1 0.2-0.3 0-0.1 0.1-0.2v-2q-0.1-0.1-0.1-0.2-0.1-0.2-0.2-0.3-0.1-0.1-0.2-0.1-0.1-0.1-0.3-0.1h-6.8l11.7-16.2-0.2 24.6q0 0.1 0 0.2 0 0.1 0.1 0.2 0.1 0 0.2 0.1 0.1 0 0.2 0h3q0 0 0.1 0 0.1-0.1 0.2-0.1 0-0.1 0.1-0.2 0-0.1 0-0.2v-26.7c0-1.8-0.5-2.7-1.5-3.2"/>
	<path id="Layer" class="s0" d="m70.6 78.9q0.5 0.2 1 0.2 0.6 0 1.1-0.1 0.5-0.2 1-0.5 0.4-0.3 0.7-0.8c0.9-1 21-28.6 21-28.6q0-0.1 0.1-0.2 0-0.1-0.1-0.2 0-0.2-0.2-0.2-0.1-0.1-0.2-0.1h-3.7q0 0-0.1 0 0 0-0.1 0.1 0 0 0 0-0.1 0.1-0.1 0.1l-18.1 24.9 0.2-24.6q0-0.1-0.1-0.2 0-0.1-0.1-0.2 0 0-0.1-0.1-0.1 0-0.2 0h-3q-0.1 0-0.2 0-0.1 0.1-0.1 0.1-0.1 0.1-0.1 0.2-0.1 0.1-0.1 0.2v26.7c0 1.9 0.6 2.7 1.5 3.3z"/>
</svg>
