<svg id="Lager_1" data-name="Lager 1" xmlns="http://www.w3.org/2000/svg" viewBox="0 0 218.56 49.93">
  <defs>
    <style>
      .cls-1 {
        fill: #000;
      }
    </style>
  </defs>
  <title>Advansia</title>
  <path class="cls-1" d="M218.56,43h-1.33l-2,3.33-2-3.33h-1.33l2.73,4.51v2.3h1.22v-2.3Zm-13.71,3.45V44.09h1.55c.87,0,1.5.46,1.5,1.17s-.63,1.17-1.5,1.17Zm1.34,1.12L208,49.79h1.46l-2-2.42a2.15,2.15,0,0,0,1.56-2.11,2.07,2.07,0,0,0-.74-1.65,2.83,2.83,0,0,0-1.9-.63h-2.79v6.81h1.2V47.55Zm-9.66-3.46h3.66V43h-4.86v6.81h1.2V47.16h3.22V46.05h-3.22Zm-6.91,3.08H187.3l1.15-2.77Zm.46,1.11.64,1.51H192l-3-6.85H187.9l-3,6.85h1.29l.63-1.51Zm-16.34-4.19h3.67V43h-4.87v6.81h1.2V47.16H177V46.05h-3.23Zm-8,4.72a2.19,2.19,0,0,1-1.65-.7,2.41,2.41,0,0,1-.67-1.73,2.38,2.38,0,0,1,.67-1.71,2.28,2.28,0,0,1,3.31,0,2.38,2.38,0,0,1,.67,1.71,2.41,2.41,0,0,1-.67,1.73,2.2,2.2,0,0,1-1.66.7m-2.51-4.93a3.55,3.55,0,0,0,5,5,3.55,3.55,0,1,0-5-5m-8.91.21V43h-5.94v1.11h2.37v5.7h1.2v-5.7Zm-13.36,2.34V44.09h1.55c.88,0,1.51.46,1.51,1.17s-.63,1.17-1.51,1.17Zm1.34,1.12,1.85,2.24h1.46l-2-2.42a2.15,2.15,0,0,0,1.56-2.11,2.07,2.07,0,0,0-.74-1.65,2.86,2.86,0,0,0-1.91-.63h-2.79v6.81h1.2V47.55Zm-8-.38h-2.33l1.15-2.77Zm.46,1.11.64,1.51h1.27l-3-6.85h-1.12l-3,6.85h1.29l.63-1.51ZM123.16,46.7V44.09h1.32c.92,0,1.54.49,1.54,1.24a1.39,1.39,0,0,1-1.54,1.37ZM122,43v6.81h1.2v-2h1.19a3.05,3.05,0,0,0,2.07-.67,2.27,2.27,0,0,0,.79-1.8,2.15,2.15,0,0,0-.74-1.7,2.85,2.85,0,0,0-2-.65Z" />
  <path class="cls-1" d="M44.55,27.56h-4.2V4h4.24C53.91,4,57.43,8,57.43,15.56c0,8.06-3.94,12-12.88,12M45.39.39H36.74a.47.47,0,0,0-.46.46V30.66a.47.47,0,0,0,.46.46h8.44c11.27,0,16.57-6.15,16.57-15.77,0-9.15-4.41-15-16.36-15" />
  <path class="cls-1" d="M188.32.39h-3.13a.47.47,0,0,0-.47.47V30.64a.47.47,0,0,0,.47.47h3.13a.47.47,0,0,0,.47-.47V.86a.47.47,0,0,0-.47-.47" />
  <path class="cls-1" d="M24.86.67c-1.3-.7-2.73,0-3.62,1.25L.09,30.36a.47.47,0,0,0,.38.75H4.35a.49.49,0,0,0,.38-.21l3.78-5.3h9.24a.73.73,0,0,0,.72-.73V22.94a.72.72,0,0,0-.72-.72H11L22.59,6l-.2,24.63a.47.47,0,0,0,.48.47h3a.47.47,0,0,0,.47-.47V3.92c0-1.85-.54-2.74-1.49-3.25" />
  <path class="cls-1" d="M148.23.39h-3.12a.47.47,0,0,0-.47.47l.19,24.63L127.45,1.57a2.86,2.86,0,0,0-3.69-.83,3,3,0,0,0-1.49,2.64l-.11,27.26a.47.47,0,0,0,.47.47h3.12a.47.47,0,0,0,.48-.47L126,6.11,142.8,28.94c.94,1.22,1.69,2.58,4.08,2a2.7,2.7,0,0,0,1.71-2.76L148.7.86a.47.47,0,0,0-.47-.47" />
  <path class="cls-1" d="M168.3,13.87l-1.48-.47c-4.36-1.43-5.54-2.62-5.54-5.24s1.82-4.52,5.83-4.52A18.23,18.23,0,0,1,173.6,5a.53.53,0,0,0,.73-.5V2.12a.85.85,0,0,0-.52-.79A19.23,19.23,0,0,0,166.86,0c-6,0-9.68,3-9.68,8.46,0,4.9,2.53,6.85,8.41,8.79l1.48.47c4.36,1.44,5.29,2.83,5.29,5,0,3.17-2.33,5.2-6.77,5.2a19.32,19.32,0,0,1-8.1-1.9.54.54,0,0,0-.77.49V29a.86.86,0,0,0,.47.77,18.47,18.47,0,0,0,8.15,1.73c7.14,0,11.16-3.42,11.16-9C176.5,18.22,174.43,15.9,168.3,13.87Z" />
  <path class="cls-1" d="M111,.67c-1.29-.7-2.73,0-3.61,1.25L86.25,30.36a.47.47,0,0,0,.38.75H90.5a.49.49,0,0,0,.38-.21l3.78-5.3h9.24a.73.73,0,0,0,.72-.73V22.94a.72.72,0,0,0-.72-.72H97.11L108.74,6l-.19,24.63a.46.46,0,0,0,.47.47h3a.46.46,0,0,0,.47-.47V3.92c0-1.85-.54-2.74-1.49-3.25" />
  <path class="cls-1" d="M217.07.67c-1.3-.7-2.73,0-3.62,1.24L192.27,30.36a.47.47,0,0,0,.39.75h3.87a.49.49,0,0,0,.38-.21l3.78-5.3h9.24a.73.73,0,0,0,.72-.73V22.94a.72.72,0,0,0-.72-.72h-6.79L214.77,6l-.19,24.63a.46.46,0,0,0,.47.47h3a.47.47,0,0,0,.47-.47l0-26.72c0-1.85-.54-2.74-1.49-3.25" />
  <path class="cls-1" d="M70.6,30.86a3.23,3.23,0,0,0,3.83-1.12c.89-1,20.94-28.6,20.94-28.6A.47.47,0,0,0,95,.39H91.34A.49.49,0,0,0,91,.6L72.87,25.49,73.07.87a.47.47,0,0,0-.48-.48h-3a.48.48,0,0,0-.47.48V27.62c0,1.84.54,2.73,1.49,3.24" />
</svg>
