<svg version="1.2" xmlns="http://www.w3.org/2000/svg" viewBox="0 0 178 118" width="178" height="118">
	<title>boitano_logo-svg</title>
	<style>
		.s0 { fill: #000000 } 
	</style>
	<path id="Path_1" class="s0" d="m24.8 50.7l-8 8 15.4 15.3-16.1 16h16.2l7.9-7.8v-16.2z"/>
	<path id="Path_2" class="s0" d="m16.1 26l-16.1 16.1v32l16.1 15.9z"/>
	<g id="Group_1">
		<path id="Path_3" fill-rule="evenodd" class="s0" d="m65.1 57h8.8c4.3 0 8 1.6 8 6.5q0 0.9-0.3 1.7-0.3 0.9-0.8 1.6-0.6 0.8-1.4 1.3-0.8 0.5-1.6 0.7v0.1c3.2 0.5 4.9 3.3 4.9 6.4q0 1-0.4 2-0.3 0.9-0.9 1.7-0.6 0.9-1.4 1.4-0.8 0.6-1.8 0.9-0.5 0.2-1.1 0.3-0.5 0.1-1 0.2-0.6 0-1.1 0-0.5 0-1.1 0h-8.8zm3.4 10.5h4.2c3.3 0.1 5.6-0.5 5.6-3.8 0-3.3-2.3-3.8-5.6-3.8h-4.2c0 0 0 7.6 0 7.6zm0 11.4h5.7c2.7 0 4.9-1.2 4.9-4.3 0-3-2.2-4.2-4.9-4.2h-5.7zm34-5.7c0 5.4-3 9.2-8.6 9.2-5.7 0-8.6-3.8-8.6-9.2 0-5.3 2.9-9.1 8.6-9.1 5.6 0 8.6 3.7 8.6 9.1zm-8.6 6.8c3.8 0 5.1-3.1 5.1-6.8 0-3.7-1.2-6.8-5.1-6.8-3.9 0-5.2 3.1-5.2 6.8 0 3.7 1.3 6.8 5.2 6.8zm11.9-23h3.9v3.6h-3.9zm0.3 24.8v-17.3h3.3v17.3zm8.3-17.3v-3.7l3.3-1v4.7l4-0.1v2.5l-4-0.1v11.2c0 1.2 0.9 1.8 2.1 1.8q0.2 0 0.4 0 0.3 0 0.5-0.1 0.2 0 0.4 0 0.2-0.1 0.4-0.1v2.5c-0.7 0-1.5 0.2-2.2 0.2q-0.3 0-0.6 0-0.2 0-0.5 0-0.3-0.1-0.6-0.1-0.2 0-0.5-0.1-0.3 0-0.6-0.1-0.2-0.1-0.5-0.3-0.2-0.1-0.5-0.3-0.2-0.2-0.4-0.4c-0.5-0.9-0.7-0.9-0.7-3.2v-11h-3v-2.4zm20 6.6c0-3-0.2-4.8-3.6-4.8-1.7 0-3.2 1-3.3 2.8h-3.4c0.2-3.8 3.1-5.1 6.5-5.1 3.6 0 7.1 1.1 7.1 5.9v8.2c0 0.8 0 2.2 0.1 3.7h-2.2c-0.3 0-0.9 0.1-0.9-0.3-0.1-0.8-0.1-1.5-0.2-2.3q-0.4 0.7-1 1.3-0.5 0.6-1.2 1.1-0.8 0.4-1.6 0.6-0.8 0.1-1.6 0.1c-3 0-6-1.6-6-4.9 0-4.9 4.3-6.3 8.4-6.3 0 0 2.9 0 2.9 0zm-3.3 2.3c-2 0.1-4.6 0.8-4.6 3.3q0 0.7 0.2 1.3 0.3 0.6 0.8 1.1 0.4 0.5 1.1 0.7 0.6 0.2 1.3 0.1c3.8 0 4.6-3.3 4.5-6.5zm14.1-6.4h0.1q0.4-0.7 0.9-1.2 0.6-0.6 1.3-1 0.7-0.4 1.4-0.6 0.8-0.2 1.6-0.2c1.2 0 6.6 0.3 6.6 5.8v12h-3.3v-10.9c0-2.9-1.2-4.4-4-4.4q-0.4 0-0.8 0.1-0.5 0-0.9 0.2-0.4 0.2-0.7 0.4-0.4 0.2-0.7 0.5c-0.5 0.5-1.4 1.3-1.4 4.7v9.4h-3.3v-17.3h3.2c0 0 0 2.5 0 2.5zm32.5 6.1c0 5.4-2.9 9.2-8.6 9.2-5.7 0-8.6-3.8-8.6-9.2 0-5.4 2.9-9.1 8.6-9.1 5.7 0 8.6 3.7 8.6 9.1zm-8.6 6.8c3.9 0 5.1-3.1 5.1-6.8 0-3.7-1.2-6.8-5.1-6.8-3.9 0-5.2 3.1-5.2 6.8 0 3.7 1.3 6.8 5.2 6.8z"/>
	</g>
</svg>
