<svg id="logo" xmlns="http://www.w3.org/2000/svg" width="177.721" height="64.033" viewBox="0 0 177.721 64.033">
  <path id="Path_1" data-name="Path 1" d="M82.059,112.4,74,120.412l15.41,15.3L73.3,151.759l16.222-.022L97.4,143.9l.044-16.2Z" transform="translate(-57.209 -87.726)" fill="#000"></path>
  <path id="Path_2" data-name="Path 2" d="M16.091,0,0,16.069.044,48.052,16.091,64.033Z" fill="#00"></path>
  <g id="Group_1" data-name="Group 1" transform="translate(65.065 30.996)">
    <path id="Path_3" data-name="Path 3" d="M296.4,166.027V141.2h8.868c4.259,0,8.012,1.646,8.012,6.454a5.562,5.562,0,0,1-4.193,5.356v.066c3.2.483,4.939,3.337,4.939,6.432a6.4,6.4,0,0,1-4.5,6.015,11.315,11.315,0,0,1-4.259.483H296.4Zm3.424-14.378h4.259c3.271.11,5.576-.483,5.576-3.754s-2.3-3.842-5.576-3.754h-4.259v7.507Zm0,11.415h5.751c2.656,0,4.851-1.163,4.851-4.237s-2.2-4.237-4.851-4.237h-5.751Zm33.981-5.664c0,5.356-2.92,9.154-8.605,9.154s-8.605-3.776-8.605-9.154,2.92-9.154,8.605-9.154C330.864,148.246,333.806,152.022,333.806,157.4Zm-8.605,6.761c3.885,0,5.159-3.1,5.159-6.783s-1.273-6.783-5.159-6.783-5.159,3.1-5.159,6.783S321.315,164.161,325.2,164.161ZM337.164,141.2h3.885v3.534h-3.885Zm.307,24.827V148.773h3.271v17.254Zm8.3-17.254v-3.688l3.271-1.032v4.72l4-.11V151.1l-4-.044v11.151c0,1.229.966,1.822,2.129,1.822a7.592,7.592,0,0,0,1.712-.2v2.5c-.768.044-1.471.2-2.239.2a12.337,12.337,0,0,1-2.2-.176,3.139,3.139,0,0,1-1.932-1.141c-.593-.834-.746-.9-.746-3.2V151.034l-2.964.044v-2.437Zm19.976,6.585c0-2.985-.176-4.742-3.644-4.742-1.646,0-3.2.966-3.227,2.744h-3.446c.176-3.776,3.139-5.115,6.542-5.115,3.534,0,7.046,1.076,7.046,5.883v8.254c0,.768.044,2.2.132,3.644h-2.2c-.307,0-.9.176-.922-.241-.066-.79-.132-1.537-.176-2.327h-.066a5.517,5.517,0,0,1-5.356,3.1c-2.985,0-6.015-1.559-6.015-4.917,0-4.851,4.3-6.256,8.385-6.256l2.942-.022Zm-3.271,2.283c-2,.11-4.654.834-4.654,3.337a3.073,3.073,0,0,0,3.4,3.2c3.842,0,4.566-3.337,4.5-6.542Zm14.137-6.322h.066a5.967,5.967,0,0,1,5.225-3.051c1.207,0,6.542.307,6.542,5.839v11.92h-3.271V155.161c0-2.854-1.207-4.412-3.951-4.412a4.455,4.455,0,0,0-3.161,1.273c-.483.483-1.383,1.229-1.383,4.61v9.4h-3.271V148.773h3.2v2.546Zm32.445,6.081c0,5.356-2.92,9.154-8.605,9.154s-8.605-3.776-8.605-9.154,2.92-9.154,8.605-9.154S409.056,152.022,409.056,157.4Zm-8.605,6.761c3.885,0,5.159-3.1,5.159-6.783s-1.273-6.783-5.159-6.783-5.159,3.1-5.159,6.783C395.314,161.066,396.587,164.161,400.451,164.161Z" transform="translate(-296.4 -141.2)" fill="#000"></path>
  </g>
</svg>
