<svg version="1.2" xmlns="http://www.w3.org/2000/svg" viewBox="0 0 616 411" width="616" height="411">
	<title>forse_logo-svg</title>
	<style>
		.s0 { fill: #000000 } 
	</style>
	<g id="logo">
		<g id="symbol">
			<path id="symbolPath" class="s0" d="m415.7 257.3v-189.9c0-14.5-11.8-26.3-26.4-26.3h-133.9c-7.4 19.9-9.2 45.3 8 72.9l55 87.9c18.2 29.2-9.8 47.9-9.8 47.9 0 0 10.6-14-4.9-38.8l-54.9-87.9c-25.3-40.4-13-93.7 27.5-119l6.3-3.9c0 0-37.8 8.3-55.8 40.9h-27.3v189.8c0 14.6 11.8 26.4 26.3 26.4q0 0 0 0h128.5c7.5-19.9 9.3-45.3-8-72.9l-9.1-14.7-6-9.6-3.2-5 26.3-16.4c8.1-5.1 10.6-15.8 5.5-23.8l-9.1-14.7-26.3 16.4-14.7 9.2-9.1-14.7-9.2-14.6c-18.2-29.2 9.7-48 9.7-48 0 0-10.5 14.1 5 38.8l9.1 14.7 26.3-16.5 14.7-9.1 9.1 14.6 9.2 14.7c10.1 16.2 5.2 37.5-11 47.6l-11.7 7.3 9.2 14.6c25.3 40.5 13 93.8-27.5 119.1l-5.3 3.3c0 0 32.8-7.1 52.5-40.3z"/>
		</g>
		<g id="text">
			<g id="letters">
				<path id="letterF" class="s0" d="m185.1 330.3v-13.9h-45.6c-5.8 0-10.5 4.7-10.5 10.5v82.2h23.7v-40.6h28.6v-13.6h-28.6v-24.6z"/>
				<path id="letterO" fill-rule="evenodd" class="s0" d="m229.6 411c-30.3 0-43.5-22-43.5-48.3 0-26.1 13.2-48.2 43.5-48.2 30.4 0 43.4 22.1 43.4 48.2 0 26.3-13 48.3-43.4 48.3zm0-82.5c-14.7 0-19 17.3-19 33.6 0 16.1 3.9 33.4 19 33.4 15 0 18.8-17.3 18.8-33.4 0-16.3-4.2-33.6-18.8-33.6z"/>
				<path id="letterR" fill-rule="evenodd" class="s0" d="m333.4 368.4l18.8 40.7h-26.3l-14.8-37.7c-2.8 0-6.1-0.2-8.1-0.5v38.2h-23.4v-81.7c0-4.4 2.7-8.2 6.6-9.7 7.2-2 16.2-3.2 26-3.2 29.9 0 42 12.5 42 28.9 0 10.6-6.4 20.2-20.8 25zm-21.2-41.8c-3.8 0-7.3 0.7-9.2 1.4v33.4c2.2 0.4 5.3 0.7 8.1 0.7 14.5 0 19.4-6.6 19.4-17.8 0-11.6-4.9-17.7-18.3-17.7z"/>
				<path id="letterS" class="s0" d="m423.1 381.5c0-30.6-40.3-23.5-40.3-40.9 0-7 6.1-11.7 15.2-11.7 6.8 0 13.1 2.2 16.9 4.2l5.4-13.2c-5-2.7-13.9-5.4-25.6-5.4-21.5 0-35.4 13.1-35.4 28.8 0 28.2 38.6 22.4 38.6 39.7 0 7.2-6.6 12.1-16.5 12.1-7.2 0-14.9-2.3-18.6-4.3l-5.7 14.8c5.9 3.1 16.1 5.4 29.1 5.4 21.7 0 36.9-12.8 36.9-29.5z"/>
				<path id="letterE" class="s0" d="m453.7 395.2v-26.7h28.6v-13.6h-28.6v-24.6h32.5v-13.9h-45.7c-5.8 0-10.5 4.7-10.5 10.5v82.2h56.2v-13.9z"/>
			</g>
		</g>
	</g>
</svg>
