<?xml version="1.0" encoding="UTF-8"?>
<svg xmlns="http://www.w3.org/2000/svg" version="1.1" viewBox="0 0 370 420" id="forselogo" xml:space="preserve">
	<g transform="matrix(0.875,0,0,-0.875,-342.28338,612.61637)" id="logo">
		<g id="symbol" transform="matrix(0.1,0,0,0.1,6.8571429,3.4285714)" style="fill:#000000;fill-opacity:1;fill-rule:nonzero;stroke:none">
			<path style="fill:#000000;fill-opacity:1;fill-rule:nonzero;stroke:none" id="symbolPath"  d="m 7187.96,3958.29 0,2169.33 c 0,166.28 -134.8,301.07 -301.08,301.08 l -1530.13,0 c -84.95,-226.87 -105.58,-517.55 91.44,-832.85 l 627.73,-1004.58 0,0 c 208.45,-333.59 -111,-548.2 -111,-548.2 0,0 120.3,160.75 -56.43,443.58 l -627.73,1004.58 c -288.91,462.35 -148.31,1071.36 314.04,1360.27 l 0,0 72.38,45.23 c 0,0 -432.16,-95.74 -637.62,-468.03 l -312.01,0 0,-2169.32 c 0,-166.28 134.8,-301.09 301.08,-301.09 0.01,0 0.01,0 0.01,0 l 1468.58,0 c 84.95,226.88 105.57,517.56 -91.45,832.86 l -104.62,167.43 -68.78,110.07 -35.84,57.35 300.61,187.84 0,0.01 c 92.47,57.77 120.59,179.57 62.8,272.05 l 0.01,0 -104.62,167.42 -300.61,-187.84 -167.43,-104.62 -104.63,167.43 -104.62,167.44 0.01,0 c -208.46,333.59 110.99,548.2 110.99,548.2 0,0 -120.3,-160.75 56.43,-443.58 l 104.63,-167.44 300.6,187.85 167.43,104.62 104.63,-167.43 104.62,-167.43 -0.01,0 c 115.57,-184.94 59.33,-428.54 -125.61,-544.1 L 6458.58,5063.2 6563.2,4895.77 C 6852.11,4433.42 6711.51,3824.41 6249.16,3535.5 l 0.01,0 -60.74,-37.95 c 0,0 374.48,80.45 600.26,460.74 l 399.27,0" />
		</g>
		<g id="text" transform="matrix(0.1,0,0,0.1,6.8571429,3.4285714)">
		  <g id="letters">
		  
			<path style="fill:#000000;fill-opacity:1;fill-rule:nonzero;stroke:none" id="letterF"  d="m 4552.59,3123.98 0,158.66 -520.81,0 c -66.26,0 -119.97,-53.71 -119.97,-119.97 l 0,-939.77 271.1,0 0,463.63 326.55,0 0,155.57 -326.55,0 0,281.88 369.68,0" />
			
			<path style="fill:#000000;fill-opacity:1;fill-rule:nonzero;stroke:none" id="letterO"  d="m 5557.92,2752.77 c 0,298.82 -149.41,551.43 -495.98,551.43 -346.58,0 -497.53,-252.61 -497.53,-551.43 0,-300.37 150.95,-551.44 497.53,-551.44 346.57,0 495.98,251.07 495.98,551.44 z m -281.88,7.7 c 0,-184.84 -43.13,-382 -214.1,-382 -172.52,0 -217.19,197.16 -217.19,382 0,186.38 49.29,383.54 217.19,383.54 166.35,0 214.1,-197.16 214.1,-383.54" />   
			
			<path style="fill:#000000;fill-opacity:1;fill-rule:nonzero;stroke:none" id="letterR"  d="m 6485.1,2973.58 c 0,187.92 -137.51,330.62 -479.45,330.62 -112.07,0 -214.61,-13.86 -297.22,-36.4 -44.19,-17.69 -75.52,-60.65 -75.52,-111.16 l 0,-933.72 268,0 0,436.64 c 22.35,-2.97 60.5,-5.93 92.25,-6.12 l 168.85,-430.51 300.1,0 -214.03,465.7 c 164.2,54.11 237.02,164.21 237.02,284.95 z m -269.97,-9.78 c 0,-127.84 -56.99,-203.32 -221.8,-203.32 -32.35,0 -67.77,3.09 -92.42,7.71 l 0,381.99 c 21.57,7.69 61.62,15.4 104.74,15.4 152.49,0 209.48,-69.32 209.48,-201.78" />
			
			<path style="fill:#000000;fill-opacity:1;fill-rule:nonzero;stroke:none" id="letterS"  d="m 7272.85,2538.66 c 0,349.65 -460.55,268.02 -460.55,466.72 0,80.1 69.31,134.01 174.05,134.01 77.02,0 149.41,-24.65 192.54,-47.75 l 61.62,150.95 c -57,30.8 -158.66,61.61 -292.67,61.61 -244.91,0 -403.56,-149.41 -403.56,-329.63 0,-321.92 440.53,-255.69 440.53,-452.85 0,-83.18 -75.47,-138.63 -187.92,-138.63 -83.17,0 -170.97,26.18 -212.56,49.29 l -66.23,-169.44 c 67.77,-35.42 184.83,-61.61 332.7,-61.61 248,0 422.05,146.33 422.05,337.33" />    
			
			<path style="fill:#000000;fill-opacity:1;fill-rule:nonzero;stroke:none" id="letterE"  d="m 7622.49,2381.55 0,304.98 326.54,0 0,155.57 -326.54,0 0,281.88 371.21,0 0,158.66 -522.35,0 c -66.25,0 -119.96,-53.71 -119.96,-119.97 l 0,-939.77 642.31,0 0,158.65 -371.21,0" />
		  </g>
		</g>
  </g>
</svg>
