<svg version="1.2" xmlns="http://www.w3.org/2000/svg" viewBox="0 0 216 144" width="216" height="144">
	<title>jpro-logo-full-color-rgb-svg</title>
	<style>
		.s0 { fill: none;stroke: #010101 } 
		.s1 { fill: #010101 } 
		.s2 { fill: #ef7921 } 
	</style>
	<g id="Components">
		<g id="_98291f4b-e123-4da1-a817-01ae92b2c37b_1">
			<path id="Layer" fill-rule="evenodd" class="s0" d="m33.7 29.8c2.8-3.6 5.5-5.7 10.7-7.6 4.6-1.8 56.3-18.9 62.8-20.7 6.7-1.8 9.3-0.8 11 0.3 3.3 2.1 4.1 6.5 2.5 11-1.1 3-8.9 16.8-8.9 16.8l-47.1 14.1-18.9 29.1c0 0-26.7 7-32.2 8.4-5.5 1.3-8.2-0.1-9.3-2.2-1.2-2.2-1.1-5.5 0.5-8.7 2.2-4.3 25.2-35.5 28.9-40.5z"/>
			<path id="Layer" class="s1" d="m23.1 47.3l36.1-10.9 14.2-21.8c0 0-21.1 6.8-25.3 8.3-8 2.9-9.2 3.6-14.5 10.6-4.2 5.4-10.5 13.8-10.5 13.8z"/>
			<path id="Layer" class="s2" d="m77.7 13.2l-13.8 21.9 43.2-13.3c0 0 6-11.2 7.4-14.7 1.3-3.5-0.7-5.2-6.2-3.8-5.6 1.5-30.6 9.9-30.6 9.9z"/>
			<path id="Layer" class="s2" d="m21.1 50.7l35.9-10.8-16.6 26c0 0-25 6.6-28.5 7.4-3.5 0.8-6.2-0.3-3.8-4.3 2.7-4.7 13-18.3 13-18.3z"/>
			<path id="Layer" class="s2" d="m93.8 61.6h-12.1v9.4h8.4c2.5 0 3.7-1.3 3.7-3.5 0-2.3 0-5.9 0-5.9z"/>
			<path id="Layer" fill-rule="evenodd" class="s1" d="m99.7 61.1c3.9-0.8 9.1-1.3 15.7-1.3 8.1 0 14 1.9 17.8 5.2 3.4 3 5.6 7.7 5.6 13.3 0 5.7-1.7 10.2-5 13.5-4.3 4.6-11.4 7-19.3 7-2.5 0-4.7-0.1-6.6-0.6v25.4h-8.2zm8.2 30.5c1.8 0.4 4.1 0.6 6.7 0.6 10 0 15.9-4.9 15.9-13.4 0-8.5-5.9-12.5-14.9-12.5-3.6 0-6.3 0.3-7.7 0.6z"/>
			<path id="Layer" class="s1" d="m145.5 91.9c0-5.4-0.1-10.1-0.4-14.5h7.3l0.3 9.2h0.3c2.1-6.3 7.2-10.2 12.7-10.2 0.9 0 1.5 0.1 2.3 0.3v7.8c-1-0.1-1.8-0.2-2.9-0.2-5.9 0-10 4.6-11.1 10.8q-0.3 1.9-0.3 4v24.7h-8.3z"/>
			<path id="Layer" fill-rule="evenodd" class="s1" d="m189.9 124.9c-12.2 0-21.8-9.2-21.8-23.9 0-15.5 10-24.6 22.5-24.6 13.1 0 21.9 9.7 21.9 23.8 0 17.2-11.7 24.7-22.5 24.7zm0.3-6.3c7.8 0 13.8-7.6 13.8-18.1 0-7.9-3.9-17.8-13.7-17.8-9.6 0-13.9 9.2-13.9 18 0 10.2 5.7 17.9 13.7 17.9z"/>
			<path id="Layer" class="s1" d="m75.3 136.6c1.1-0.6 2.7-1.4 3.8-2.6 2.4-2.5 3.2-6.4 3.2-17.5v-39.1h8.2v42.3c0 9-1.2 15.1-5.4 19.2-3 3-5.1 3.7-7.9 4.8z"/>
		</g>
	</g>
</svg>
