<svg version="1.2" xmlns="http://www.w3.org/2000/svg" viewBox="0 0 511 340" width="511" height="340">
	<title>overhuset_logo-svg</title>
	<style>
		.s0 { fill: #3a2417 } 
	</style>
	<path id="Layer" class="s0" d="m127.5 133.3q-0.3 0-0.6 0.1-0.3 0.1-0.6 0.4-0.2 0.2-0.4 0.4-0.2 0.3-0.2 0.6l-10.5 57.8-10.4-57.8q-0.1-0.3-0.3-0.6-0.1-0.3-0.4-0.5-0.2-0.2-0.6-0.3-0.3-0.1-0.6-0.1h-11.7q-0.4 0-0.8 0.2-0.4 0.2-0.6 0.5-0.3 0.3-0.4 0.7-0.1 0.4 0 0.8l17.2 84.5q0.1 0.3 0.2 0.6 0.2 0.3 0.4 0.5 0.3 0.2 0.6 0.3 0.3 0.1 0.6 0.1h13.6q0.3 0 0.6-0.1 0.3-0.1 0.6-0.3 0.2-0.2 0.4-0.5 0.2-0.3 0.2-0.6l17.2-84.5q0.1-0.2 0.1-0.4 0-0.2-0.1-0.4 0-0.2-0.1-0.3-0.1-0.2-0.3-0.4-0.1-0.2-0.2-0.3-0.2-0.1-0.4-0.2-0.2-0.1-0.4-0.1-0.2-0.1-0.4-0.1z"/>
	<path id="Layer" class="s0" d="m150.3 133.3q-0.4 0-0.7 0.2-0.4 0.1-0.6 0.4-0.3 0.2-0.4 0.6-0.2 0.3-0.2 0.7v84.5q0 0.3 0.2 0.7 0.1 0.3 0.4 0.6 0.2 0.2 0.6 0.4 0.3 0.1 0.7 0.1h31.8q0.4 0 0.7-0.1 0.3-0.2 0.6-0.4 0.3-0.3 0.4-0.6 0.1-0.4 0.1-0.7v-9.9q0-0.3-0.1-0.7-0.1-0.3-0.4-0.6-0.3-0.2-0.6-0.4-0.3-0.1-0.7-0.1h-18.3v-24.9h17.1q0.4 0 0.7-0.1 0.4-0.2 0.6-0.4 0.3-0.3 0.4-0.6 0.2-0.4 0.2-0.8v-9.8q0-0.3-0.2-0.7-0.1-0.3-0.4-0.6-0.2-0.3-0.6-0.4-0.3-0.1-0.7-0.1h-17.1v-22.8h18.3q0.4 0 0.7-0.1 0.3-0.2 0.6-0.4 0.3-0.3 0.4-0.6 0.1-0.4 0.1-0.7v-9.8q0-0.4-0.1-0.8-0.1-0.3-0.4-0.6-0.3-0.2-0.6-0.4-0.3-0.1-0.7-0.1z"/>
	<path id="Layer" fill-rule="evenodd" class="s0" d="m214.8 133.3c19 0 20.7 6.4 20.7 24.9 0 9.7-1.2 15.4-7.4 18.9 4.8 2 7 6.4 7 13.4v18.4q-0.1 1.3-0.1 2.6 0.1 1.3 0.1 2.6 0.1 1.3 0.3 2.6 0.1 1.3 0.3 2.6 0.1 0.4 0 0.8-0.1 0.4-0.4 0.7-0.2 0.4-0.6 0.6-0.4 0.1-0.8 0.1h-11q-0.3 0-0.5 0-0.2-0.1-0.5-0.2-0.2-0.2-0.3-0.4-0.2-0.1-0.3-0.4c-1.4-2.5-1.7-4.9-1.7-8.5v-19.1c0-7.2-0.8-8.2-7.2-8.2h-2.2v35q0 0.3-0.1 0.7-0.2 0.3-0.4 0.6-0.3 0.2-0.6 0.4-0.4 0.1-0.7 0.1h-11.7q-0.4 0-0.7-0.1-0.4-0.2-0.6-0.4-0.3-0.3-0.4-0.6-0.2-0.4-0.2-0.7v-84.5q0-0.4 0.2-0.7 0.1-0.4 0.4-0.6 0.2-0.3 0.6-0.4 0.3-0.2 0.7-0.2zm-4.6 37.9h1.2c7.5 0 8.7 0 8.7-12.5 0-11.9-0.4-11.9-6.2-11.9h-3.7z"/>
	<path id="Layer" class="s0" d="m277.6 133.3q-0.4 0-0.7 0.2-0.3 0.1-0.6 0.4-0.3 0.2-0.4 0.6-0.1 0.3-0.1 0.7v34.4h-11.9v-34.5q0-0.3-0.1-0.7-0.2-0.3-0.4-0.6-0.3-0.2-0.6-0.4-0.4-0.1-0.7-0.1h-11.7q-0.4 0-0.8 0.1-0.3 0.2-0.6 0.4-0.2 0.3-0.4 0.6-0.1 0.4-0.1 0.7v84.5q0 0.4 0.1 0.7 0.2 0.4 0.4 0.6 0.3 0.3 0.6 0.4 0.4 0.2 0.8 0.2h11.7q0.3 0 0.7-0.2 0.3-0.1 0.6-0.4 0.2-0.2 0.4-0.6 0.1-0.3 0.1-0.7v-36.5h11.9v36.5q0 0.4 0.1 0.7 0.2 0.4 0.4 0.6 0.3 0.3 0.6 0.4 0.4 0.2 0.7 0.2h11.7q0.4 0 0.7-0.2 0.4-0.1 0.6-0.4 0.3-0.2 0.4-0.6 0.2-0.3 0.2-0.7v-84.5q0-0.3-0.2-0.7-0.1-0.3-0.4-0.5-0.2-0.3-0.6-0.4-0.3-0.2-0.7-0.2z"/>
	<path id="Layer" class="s0" d="m332.4 132.9q-0.4 0-0.8 0.2-0.3 0.1-0.6 0.4-0.2 0.2-0.4 0.6-0.1 0.3-0.1 0.7v67.4c0 5.1-1.6 6.8-6.2 6.8-4.7 0-6.4-1.7-6.4-6.8v-67.4q0-0.4-0.1-0.7-0.2-0.4-0.4-0.6-0.3-0.3-0.6-0.4-0.4-0.2-0.7-0.2h-11.7q-0.4 0-0.8 0.2-0.3 0.1-0.6 0.4-0.2 0.2-0.4 0.6-0.1 0.3-0.1 0.7v65.4c0 14.1 7.5 21.6 21.7 21.6 14.3 0 21.7-7.5 21.7-21.6v-65.4q0-0.4-0.1-0.7-0.2-0.4-0.4-0.6-0.3-0.3-0.6-0.4-0.4-0.2-0.7-0.2z"/>
	<path id="Layer" class="s0" d="m356 154.2c0 11.9 6.1 19 14.2 27.1 12 11.8 12 13.8 12 20.2 0 6.4-2.3 7.8-5.8 7.8-1.3 0-5 0-5-7.2v-6.9q0-0.4-0.1-0.7-0.2-0.4-0.4-0.6-0.3-0.3-0.6-0.4-0.4-0.2-0.7-0.2h-11.7q-0.4 0-0.7 0.2-0.4 0.1-0.6 0.4-0.3 0.2-0.4 0.6-0.2 0.3-0.2 0.7v10c0 10.8 7.3 17 20 17 14.1 0 20.9-7.4 20.9-22.7 0-10.7-2.3-15.3-14-27.5-10.9-11.4-11.5-14.4-11.5-19.2 0-6.8 2.6-7.4 5.2-7.4 2.3 0 4.7 0.7 4.7 5.8v6.6q0 0.4 0.2 0.8 0.1 0.3 0.4 0.6 0.2 0.2 0.6 0.4 0.3 0.1 0.7 0.1h11q0.3 0 0.7-0.1 0.3-0.2 0.6-0.4 0.2-0.3 0.4-0.6 0.1-0.4 0.1-0.8v-8c0-5.7-1.2-9.5-4-12.1-3.6-3.3-8.9-5.2-14.9-5.2-14.2 0-21 7.1-21 21.7"/>
	<path id="Layer" class="s0" d="m441 133.3h-31.8q-0.4 0-0.7 0.2-0.4 0.1-0.6 0.4-0.3 0.2-0.4 0.6-0.2 0.3-0.2 0.7v84.5q0 0.3 0.2 0.7 0.1 0.3 0.4 0.6 0.2 0.2 0.6 0.4 0.3 0.1 0.7 0.1h31.8q0.4 0 0.7-0.1 0.4-0.2 0.6-0.4 0.3-0.3 0.4-0.6 0.2-0.4 0.2-0.7v-9.9q0-0.3-0.2-0.7-0.1-0.3-0.4-0.6-0.2-0.2-0.6-0.4-0.3-0.1-0.7-0.1h-18.3v-24.9h17.1q0.4 0 0.7-0.1 0.4-0.2 0.6-0.4 0.3-0.3 0.4-0.6 0.2-0.4 0.2-0.8v-9.8q0-0.4-0.2-0.7-0.1-0.3-0.4-0.6-0.2-0.2-0.6-0.4-0.3-0.1-0.7-0.1h-17.1v-22.8h38.7v72.8q0 0.4 0.1 0.7 0.1 0.4 0.4 0.6 0.3 0.3 0.6 0.4 0.3 0.2 0.7 0.2h11.7q0.4 0 0.7-0.2 0.4-0.1 0.6-0.4 0.3-0.2 0.4-0.6 0.2-0.3 0.2-0.7v-72.8h12.1q0.4 0 0.7-0.1 0.4-0.2 0.6-0.4 0.3-0.3 0.4-0.6 0.2-0.4 0.2-0.7v-9.8q0-0.4-0.2-0.8-0.1-0.3-0.4-0.5-0.2-0.3-0.6-0.4-0.3-0.2-0.7-0.2z"/>
	<path id="Layer" fill-rule="evenodd" class="s0" d="m43 104c16.7 0.1 27.5 9 30.9 25.4l13.6 65.6c4.2 20.2-6.3 34.4-29.9 39.3-23.7 4.8-38.9-4-43.1-24.2l-13.6-65.5c-4.2-20.2 6.3-34.4 29.9-39.3q1.5-0.3 2.9-0.5 1.5-0.3 3-0.4 1.4-0.2 2.9-0.3 1.5-0.1 3-0.1zm-3 108.6c1.5 7.3 5.4 10.3 11 10.3q0.5 0 1-0.1 0.5 0 1 0 0.5-0.1 1-0.2 0.5-0.1 1-0.2c7.7-1.5 11.8-6 9.9-15l-16.7-80.3c-1.8-9.1-7.3-11.5-15-9.9-7.6 1.6-11.7 6-9.8 15l16.6 80.4z"/>
	<path id="Layer" class="s0" d="m489.5 207.8v2.4h2.8v11h2.6v-11h2.8v-2.4zm17.1 0l-1.8 9.4-2-9.4h-3.6v13.4h2.3v-9.5l2 9.5h2.5l1.8-9.5v9.5h2.5v-13.4z"/>
</svg>
