<svg id="Layer_1" data-name="Layer 1" xmlns="http://www.w3.org/2000/svg" viewBox="0 0 510.36 131.57"><defs><style>.cls-1{fill:#3a2417;}</style></defs><title>Overhuset logo</title><path class="cls-1" d="M467.6,360a1.85,1.85,0,0,0-1.82,1.52l-10.47,57.76-10.46-57.76A1.85,1.85,0,0,0,443,360h-11.7a1.86,1.86,0,0,0-1.82,2.22l17.2,84.48a1.85,1.85,0,0,0,1.82,1.49H462.1a1.84,1.84,0,0,0,1.81-1.49l17.2-84.48a1.81,1.81,0,0,0-.38-1.53,1.83,1.83,0,0,0-1.43-.69Z" transform="translate(-340.09 -330.68)"/><path class="cls-1" d="M490.36,360a1.86,1.86,0,0,0-1.86,1.86v84.48a1.85,1.85,0,0,0,1.86,1.85h31.82a1.85,1.85,0,0,0,1.85-1.85v-9.83a1.85,1.85,0,0,0-1.85-1.86H503.9V409.78H521a1.85,1.85,0,0,0,1.85-1.85V398.1a1.84,1.84,0,0,0-1.85-1.85H503.9V373.5h18.28a1.84,1.84,0,0,0,1.85-1.84v-9.83a1.85,1.85,0,0,0-1.85-1.86Z" transform="translate(-340.09 -330.68)"/><path class="cls-1" d="M550.32,373.5h3.76c5.76,0,6.11,0,6.11,11.85,0,12.54-1.16,12.54-8.68,12.54h-1.19ZM536.77,360a1.85,1.85,0,0,0-1.85,1.86v84.48a1.85,1.85,0,0,0,1.85,1.85h11.7a1.85,1.85,0,0,0,1.85-1.85V411.42h2.14c6.38,0,7.26,1,7.26,8.21V438.7c0,3.61.26,6,1.64,8.51a1.85,1.85,0,0,0,1.62,1h11a1.86,1.86,0,0,0,1.82-2.22,56.94,56.94,0,0,1-.66-10.4V417.17c0-7-2.19-11.36-6.94-13.41,6.21-3.52,7.41-9.2,7.41-18.89,0-18.44-1.7-24.9-20.69-24.9Z" transform="translate(-340.09 -330.68)"/><path class="cls-1" d="M617.7,360a1.85,1.85,0,0,0-1.85,1.86v34.42H604V361.83a1.85,1.85,0,0,0-1.85-1.86h-11.7a1.86,1.86,0,0,0-1.86,1.86v84.48a1.85,1.85,0,0,0,1.86,1.85h11.7a1.85,1.85,0,0,0,1.85-1.85V409.78h11.86v36.53a1.85,1.85,0,0,0,1.85,1.85h11.7a1.85,1.85,0,0,0,1.85-1.85V361.83A1.85,1.85,0,0,0,629.4,360Z" transform="translate(-340.09 -330.68)"/><path class="cls-1" d="M672.44,359.62a1.86,1.86,0,0,0-1.86,1.86v67.39c0,5.09-1.56,6.81-6.22,6.81S658,434,658,428.87V361.48a1.85,1.85,0,0,0-1.85-1.86h-11.7a1.85,1.85,0,0,0-1.85,1.86v65.4c0,14.15,7.52,21.63,21.74,21.63S686,441,686,426.88v-65.4a1.85,1.85,0,0,0-1.85-1.86Z" transform="translate(-340.09 -330.68)"/><path class="cls-1" d="M696.08,380.9c0,11.87,6.15,19,14.23,27.05,12,11.86,12,13.8,12,20.22s-2.35,7.86-5.87,7.86c-1.22,0-4.93,0-4.93-7.27v-6.91a1.85,1.85,0,0,0-1.86-1.85h-11.7a1.84,1.84,0,0,0-1.84,1.85v10.06c0,10.77,7.27,16.95,20,16.95,14.09,0,20.93-7.42,20.93-22.67,0-10.68-2.37-15.3-14.09-27.5-10.9-11.38-11.41-14.41-11.41-19.19,0-6.82,2.55-7.4,5.16-7.4,2.33,0,4.7.68,4.7,5.76v6.67a1.85,1.85,0,0,0,1.85,1.85h11a1.85,1.85,0,0,0,1.85-1.85v-8c0-5.79-1.22-9.53-4-12.13-3.63-3.33-8.95-5.17-14.94-5.17-14.16,0-21,7.07-21,21.63" transform="translate(-340.09 -330.68)"/><path class="cls-1" d="M781.09,360H749.27a1.85,1.85,0,0,0-1.85,1.86v84.48a1.85,1.85,0,0,0,1.85,1.85h31.82a1.85,1.85,0,0,0,1.86-1.85v-9.83a1.86,1.86,0,0,0-1.86-1.86H762.82V409.78h17.11a1.86,1.86,0,0,0,1.85-1.85v-9.84a1.85,1.85,0,0,0-1.85-1.84H762.82V373.5h38.63v72.81a1.85,1.85,0,0,0,1.85,1.85H815a1.85,1.85,0,0,0,1.85-1.85V373.5H829a1.84,1.84,0,0,0,1.85-1.84v-9.83A1.85,1.85,0,0,0,829,360Z" transform="translate(-340.09 -330.68)"/><path class="cls-1" d="M380.16,439.23,363.5,358.87c-1.87-9,2.23-13.43,9.88-15s13.18.84,15,9.85l16.66,80.37c1.87,9-2.23,13.42-9.89,15a19.76,19.76,0,0,1-4.05.45c-5.53,0-9.47-3-11-10.29m2.55-108.55A60.43,60.43,0,0,0,370.93,332c-23.62,4.9-34.12,19.1-29.94,39.26l13.58,65.54c4.18,20.17,19.47,29,43.08,24.13s34.12-19.09,29.94-39.26L414,356.13c-3.42-16.45-14.22-25.38-30.9-25.45Z" transform="translate(-340.09 -330.68)"/><path class="cls-1" d="M829.63,434.45v2.42h2.76v11H835v-11h2.76v-2.42Zm17.16,0L845,443.9l-2-9.45h-3.65v13.46h2.3v-9.49l2,9.49h2.49l1.78-9.56v9.56h2.5V434.45Z" transform="translate(-340.09 -330.68)"/></svg>