<svg version="1.2" xmlns="http://www.w3.org/2000/svg" viewBox="0 0 141 94" width="141" height="94">
	<title>redpill_logo-svg</title>
	<style>
		.s0 { fill: #000000 } 
	</style>
	<path id="Layer" fill-rule="evenodd" class="s0" d="m17.2 41.2c-1.6 0.1-3.2-0.8-3.8-2.3l-1.9-4.7c-1.2-2.9-2.3-3-3.7-3.3-0.9-0.2-1.7-0.3-2.6-0.3v10.4h-1.7c-1.8 0.2-3.4-1.1-3.5-2.9v-22.5c2.2-0.6 4.4-0.9 6.7-1h2.9c5.2 0 8.6 3.1 8.6 7.5 0 3.6-2.3 6.5-5.4 6.9 1.5 0.8 2.6 2.1 3.2 3.7l2.1 4.9c0.4 1 1 1.9 1.6 2.7-0.6 0.7-1.1 0.9-2.5 0.9zm-9.7-22c-0.8 0-1.6 0.1-2.3 0.3v6.9c1.3 0.2 2.5 0.3 3.8 0.2 2.1 0 3.9-1.2 3.9-3.6 0-3.2-1.6-3.8-3.9-3.8zm20.4 13.7h-3.4c0.4 2.6 2.8 4.2 5.8 4.2 2.1 0 4.6-0.4 6.3-1.9h0.2v1.6c0 2.6-1.8 4.6-7.4 4.6-5.6 0-10.1-4.6-10.1-10.2v-0.2c0-6.7 4.2-11 10-11 4.4-0.2 8.1 3.3 8.2 7.6v0.4c0 3.8-2.8 5-9.6 4.9zm1-8.6c-2.4 0-4.3 2-4.3 4.4v0.7h2.2c4.8 0 6-0.5 6-2 0-2.1-1.6-3.1-3.9-3.1zm20.1 17.2c-5.4 0-9.6-4.7-9.6-10.4 0-6.7 3.3-11.1 9.3-11.1q0.8 0 1.6 0.3 0.7 0.2 1.4 0.6 0.7 0.4 1.2 1 0.5 0.6 0.9 1.3v-9.6h1.6c1.7-0.2 3.3 1 3.5 2.8v15.2c0 5.9-2.8 9.9-9.9 9.9zm-0.3-17.2c-2.6 0-4.3 2.5-4.3 5.8 0 4.3 2.2 7 5.2 7 3 0 4.1-2.1 4.1-5.9 0-5-2.2-6.9-5-6.9zm22.9 17.2q-0.8 0-1.6-0.2-0.7-0.2-1.4-0.6-0.7-0.4-1.2-1-0.6-0.5-1-1.2v9.1h-1.6c-1.9 0-3.5-1.5-3.6-3.4v-12.7c0.1-6.8 3.1-11.5 10.4-11.5 5.4 0 9.3 5 9.3 10.1 0 6.6-3.3 11.4-9.3 11.4zm-0.8-17c-2.8 0-4.4 2.4-4.4 6 0 4.1 2 6.4 5.1 6.4 2.5 0 4.2-2.2 4.2-5.5-0.1-4.8-1.7-6.9-4.9-6.9zm15-5.5c-1.7 0-3-1.3-3-3 0-1.7 1.3-3 3-3 1.7 0 3 1.3 3 3 0 1.7-1.3 3-3 3zm3.6 22.2c-4 0-6.1-2.2-6.1-6.4v-13.9h1.4c2.3 0 3.7 1.2 3.7 3.8v9.6c0 2.1 0.9 2.7 3.1 2.7h1v1.1c0 2.2-0.9 3.1-3.1 3.1zm11.2 0c-4.2 0-6.5-2.2-6.5-6.4v-21.2h1.4c2.6 0 3.7 1.5 3.7 3.4v17.3c0 2.1 1.1 2.7 3.5 2.7h1.4v1.1c-0.1 2.2-1.3 3.1-3.5 3.1zm11.2 0c-4.2 0-6.5-2.2-6.5-6.4v-21.2h1.4c2.6 0 3.7 1.5 3.7 3.4v17.3c0 2.1 1.1 2.7 3.5 2.7h1.4v1.1c0 2.2-1.2 3.1-3.5 3.1zm-65.4 33.4h-2c-6.1 0-9.5-3.4-9.5-9.7v-16.7h2.1c2.1 0 3.2 1.2 3.2 3.8v12.5c0 4 0.9 5.4 4.8 5.4h1.3q0.7 0 1.4 0 0.7-0.1 1.3-0.2 0.7-0.2 1.4-0.4 0.7-0.1 1.3-0.4v1.8c0.2 2.4-1 3.9-5.3 3.9zm9.6-22.2c-1.7 0-3-1.3-3-3 0-1.7 1.3-3 3-3 1.7 0 3 1.3 3 3 0 1.7-1.3 3-3 3zm3.9 22.1c-4 0-6.1-2.2-6.1-6.4v-13.9h1.5c2.3 0 3.7 1.2 3.7 3.8v9.6c0 2.1 0.9 2.7 3.1 2.7h1v1.1c-0.2 2.3-1.1 3.1-3.2 3.1zm21.6-0.2c-2.3 0-3.7-1.5-3.7-3.3v-8.2c0-3.5-1.5-5-4.2-5-2.2 0-3.7 1.7-3.7 4.6v11.9h-1.5c-1.8 0.1-3.4-1.2-3.6-3.1v-9.2c0-4.3 2.8-8.8 9.3-8.8 4.8 0 8.8 3.2 8.8 9.1v12zm14.6 0.5c-2.1 0-4.1-1.2-5.2-3v9.1h-1.6c-1.9 0-3.5-1.5-3.6-3.4v-12.6c0-6.8 3-11.5 10.3-11.5 5.4 0 9.3 5 9.3 10.1 0 6.5-3.3 11.3-9.2 11.3zm-0.9-17c-2.8 0-4.4 2.4-4.4 6 0 4.1 2 6.4 5.1 6.4 2.5 0 4.2-2.2 4.2-5.5 0-4.8-1.6-6.9-4.9-6.9zm24.1 1c-0.9-0.4-2-0.6-3-0.6-2.3 0-3.5 1.3-3.5 4.4v11.8h-1.4c-2.3 0-3.7-1.1-3.7-3.3v-9.5c0-4.1 2.2-8 7.6-8 3.2 0 4.3 1.8 4.3 3.3v1.8zm21.5 4.9c0 6.2-3.6 11.1-10.2 11.1-6.1 0-9.7-4.9-9.7-10.4 0-6.1 3.6-11.1 10.2-11.1 6.2 0 9.7 5 9.7 10.4zm-9.6-7.9c-2.5-0.3-6.6 0.6-7.3 5.4-0.2 1.4 0.4-1.1 4.1-2.9 1.5-0.7 3.1-1.2 4.8-1.3 0.5-0.1-0.1-0.9-1.6-1.2z"/>
</svg>
