<?xml version="1.0" encoding="UTF-8" standalone="no"?>
<svg
   id="Layer_1"
   data-name="Layer 1"
   viewBox="0 0 161 109"
   width="161"
   stroke-width="0"
   height="109"
   display="block"
   aria-label="Techfolk logo"
   color="#ff704c"
   version="1.1"
   xmlns="http://www.w3.org/2000/svg"
   xmlns:svg="http://www.w3.org/2000/svg">
  <defs
     id="defs9" />
  <path
     d="m 42.3923,46.83719 h -6.5202 v -3.19418 h 17.1152 v 3.19418 h -6.5171 v 18.5198 h -4.0779 z"
     class="cls-1"
     id="path1" />
  <path
     d="M 65.2337,55.54125 H 53.5473 c 0.0601,2.4802 1.7526,4.309 4.1981,4.309 1.8982,0 3.5085,-1.0835 3.8217,-2.6963 l 3.385,0.2787 c -0.3448,3.0689 -3.3218,5.3236 -7.2067,5.3236 -4.7011,0 -8.0862,-3.4133 -8.0862,-8.2515 0,-4.8383 3.2585,-8.261 7.9597,-8.261 4.4828,0 7.7097,3.3194 7.7097,8.0637 -0.0029,0.4129 -0.0346,0.8252 -0.0949,1.2338 z m -3.7046,-2.3894 c 0,-2.2641 -1.6324,-4.0709 -3.9798,-4.0709 -2.2146,0 -3.8881,1.644 -4.0115,4.0709 z"
     class="cls-1"
     id="path2" />
  <path
     d="m 67.9639,54.517249 c 0,-4.8727 3.4167,-8.2829 8.3361,-8.2829 4.2931,0 7.4598,2.6368 7.6781,6.4196 l -3.6982,0.2787 c -0.1551,-2.0167 -1.816,-3.4446 -3.9799,-3.4446 -2.6321,0 -4.448,2.0793 -4.448,5.0261 0,2.9467 1.8159,4.9916 4.448,4.9916 2.2146,0 3.8565,-1.4248 4.0115,-3.4728 l 3.6983,0.2787 c -0.1867,3.8173 -3.3535,6.454 -7.7098,6.454 -4.9194,0.0032 -8.3361,-3.4102 -8.3361,-8.2484 z"
     class="cls-1"
     id="path3" />
  <path
     d="m 101.343,55.80269 v 9.5543 h -3.8531 v -9.0282 c 0,-2.4488 -1.1927,-3.8455 -3.2617,-3.8455 -2.2145,0 -3.5085,1.6127 -3.5085,4.5282 v 8.3455 H 86.8633 V 43.64301 h 3.8564 v 9.24428 c 0.7213,-2.1921 2.4455,-3.5073 4.8246,-3.5073 3.5432,0 5.7987,2.5146 5.7987,6.4227 z"
     class="cls-1"
     id="path4" />
  <path
     d="m 106.484,52.965111 h -2.847 v -2.9781 h 2.847 v -1.2088 c 0,-3.0407 2.256,-5.3674 5.264,-5.3674 0.663,-0.01523 1.326,0.04785 1.974,0.18789 v 3.03761 c -0.391,-0.0807 -0.79,-0.1217 -1.189,-0.1222 -1.506,0 -2.196,0.8675 -2.196,2.2641 v 1.2088 h 3.259 v 2.9781 h -3.259 v 12.6263 h -3.853 z"
     class="cls-1"
     id="path5" />
  <path
     d="m 115.197,54.51565 c 0,-4.7161 3.607,-8.2829 8.368,-8.2829 4.761,0 8.399,3.5668 8.399,8.2829 0,4.7161 -3.603,8.2516 -8.399,8.2516 -4.796,0 -8.368,-3.57 -8.368,-8.2516 z m 12.851,0 c 0,-2.9781 -1.819,-5.0574 -4.483,-5.0574 -2.664,0 -4.48,2.0793 -4.48,5.0574 0,2.9781 1.848,5.0104 4.48,5.0104 2.632,0 4.483,-2.0323 4.483,-5.0104 z"
     class="cls-1"
     transform-origin="123.58050155639648px 23.04164981842041px"
     id="path6" />
  <path
     d="m 134.441,60.8601 c 0.038,-1.0033 0.174,-2.0006 0.405,-2.9781 l 3.325,-14.6273 3.667,0.74217 -3.325,14.64303 c -0.129,0.5286 -0.202,1.0691 -0.218,1.6127 0,1.3967 1.003,2.358 2.569,2.358 0.285,0.0122 0.571,-0.0195 0.847,-0.0939 l -0.594,3.1033 c -0.434,0.0811 -0.875,0.1231 -1.316,0.1253 -3.136,-0.0125 -5.36,-2.0292 -5.36,-4.8852 z"
     class="cls-1"
     transform-origin="138.13949584960938px 19.766300201416016px"
     id="path7" />
  <path
     d="m 154.625,55.74009 6.049,9.6169 h -4.198 l -4.429,-7.1649 -2.696,2.5052 v 4.6534 h -3.815 V 43.64301 h 3.825 v 12.46978 l 6.893,-6.3602 H 161 Z"
     class="cls-1"
     id="path8" />
  <path
     d="M 25.6884,63.5156 H 9.07617 c 0,2.3828 0.95623,4.668 2.65843,6.3529 1.7022,1.6849 4.0108,2.6315 6.418,2.6315 h 7.5358 z M 21.0065,54.4687 V 45.48434 H 9.07644 V 36.5 H 0 v 18.0313 c 0,2.3828 0.956265,4.668 2.65843,6.3529 1.70216,1.6849 4.01079,2.6315 6.41801,2.6315 v -9.047 z"
     class="cls-1"
     id="path9" />
</svg>
