<svg xmlns="http://www.w3.org/2000/svg" id="Layer_1" data-name="Layer 1" viewBox="0 0 164 38" width="164" stroke-width="0" height="38" display="block" aria-label="Techfolk logo" color="#FF704C">
  <path d="M42.3923 12.3226H35.8721V9.12842H52.9873V12.3226H46.4702V30.8424H42.3923V12.3226Z" class="cls-1"></path>
  <path d="M65.2337 24.0812H53.5473C53.6074 26.5614 55.2999 28.3902 57.7454 28.3902C59.6436 28.3902 61.2539 27.3067 61.5671 25.6939L64.9521 25.9726C64.6073 29.0415 61.6303 31.2962 57.7454 31.2962C53.0443 31.2962 49.6592 27.8829 49.6592 23.0447C49.6592 18.2064 52.9177 14.7837 57.6189 14.7837C62.1017 14.7837 65.3286 18.1031 65.3286 22.8474C65.3257 23.2603 65.294 23.6726 65.2337 24.0812ZM61.5291 21.6918C61.5291 19.4277 59.8967 17.6209 57.5493 17.6209C55.3347 17.6209 53.6612 19.2649 53.5378 21.6918H61.5291Z" class="cls-1"></path>
  <path d="M67.9639 23.0573C67.9639 18.1846 71.3806 14.7744 76.3 14.7744C80.5931 14.7744 83.7598 17.4112 83.9781 21.194L80.2799 21.4727C80.1248 19.456 78.4639 18.0281 76.3 18.0281C73.6679 18.0281 71.852 20.1074 71.852 23.0542C71.852 26.0009 73.6679 28.0458 76.3 28.0458C78.5146 28.0458 80.1565 26.621 80.3115 24.573L84.0098 24.8517C83.8231 28.669 80.6563 31.3057 76.3 31.3057C71.3806 31.3089 67.9639 27.8955 67.9639 23.0573Z" class="cls-1"></path>
  <path d="M101.343 21.2881V30.8424H97.4899V21.8142C97.4899 19.3654 96.2972 17.9687 94.2282 17.9687C92.0137 17.9687 90.7197 19.5814 90.7197 22.4969V30.8424H86.8633V9.12842H90.7197V18.3727C91.441 16.1806 93.1652 14.8654 95.5443 14.8654C99.0875 14.8654 101.343 17.38 101.343 21.2881Z" class="cls-1"></path>
  <path d="M106.484 18.2284H103.637V15.2503H106.484V14.0415C106.484 11.0008 108.74 8.6741 111.748 8.6741C112.411 8.65887 113.074 8.72195 113.722 8.86199V11.8996C113.331 11.8189 112.932 11.7779 112.533 11.7774C111.027 11.7774 110.337 12.6449 110.337 14.0415V15.2503H113.596V18.2284H110.337V30.8547H106.484V18.2284Z" class="cls-1"></path>
  <path d="M115.197 23.0573C115.197 18.3412 118.804 14.7744 123.565 14.7744C128.326 14.7744 131.964 18.3412 131.964 23.0573C131.964 27.7734 128.361 31.3089 123.565 31.3089C118.769 31.3089 115.197 27.7389 115.197 23.0573ZM128.048 23.0573C128.048 20.0792 126.229 17.9999 123.565 17.9999C120.901 17.9999 119.085 20.0792 119.085 23.0573C119.085 26.0354 120.933 28.0677 123.565 28.0677C126.197 28.0677 128.048 26.0354 128.048 23.0573Z" class="cls-1" style="transform: none; transform-origin: 123.581px 23.0416px;" transform-origin="123.58050155639648px 23.04164981842041px"></path>
  <path d="M134.441 26.1264C134.479 25.1231 134.615 24.1258 134.846 23.1483L138.171 8.521L141.838 9.26317L138.513 23.9062C138.384 24.4348 138.311 24.9753 138.295 25.5189C138.295 26.9156 139.298 27.8769 140.864 27.8769C141.149 27.8891 141.435 27.8574 141.711 27.783L141.117 30.8863C140.683 30.9674 140.242 31.0094 139.801 31.0116C136.665 30.9991 134.441 28.9824 134.441 26.1264Z" class="cls-1" style="transform: none; transform-origin: 138.139px 19.7663px;" transform-origin="138.13949584960938px 19.766300201416016px"></path>
  <path d="M154.625 21.2255L160.674 30.8424H156.476L152.047 23.6775L149.351 26.1827V30.8361H145.536V9.12842H149.361V21.5982L156.254 15.238H161L154.625 21.2255Z" class="cls-1"></path>
  <path d="M25.6884 27.0156H9.07617C9.07617 29.3984 10.0324 31.6836 11.7346 33.3685C13.4368 35.0534 15.7454 36 18.1526 36H25.6884V27.0156Z M21.0065 17.9687V8.98434H9.07644V0H0V18.0313C0 20.4141 0.956265 22.6993 2.65843 24.3842C4.36059 26.0691 6.66922 27.0157 9.07644 27.0157V17.9687H21.0065Z" class="cls-1"></path>
</svg>
