<svg version="1.2" xmlns="http://www.w3.org/2000/svg" viewBox="0 0 101 67" width="101" height="67">
	<title>uptime-logo-svg</title>
	<style>
		.s0 { fill: #da001b } 
		.s1 { fill: #030404 } 
	</style>
	<g id="Group_1">
		<path id="Path_1" class="s0" d="m12.9 24.9v8c0 1.3-0.5 2.6-1.4 3.5-0.9 0.9-2.1 1.4-3.4 1.4-1.3 0-2.5-0.5-3.4-1.4-1-0.9-1.5-2.2-1.5-3.5v-8h-3.2v8c0 2.2 0.8 4.3 2.3 5.8 1.6 1.6 3.6 2.4 5.8 2.4 2.2 0 4.2-0.8 5.7-2.4 1.6-1.5 2.4-3.6 2.4-5.8v-8z"/>
		<path id="Path_2" class="s0" d="m25.9 24.9q-1.6 0-3.1 0.6-1.5 0.6-2.6 1.7-1.2 1.2-1.8 2.6-0.6 1.5-0.6 3.1v13h3.2v-13c0-1.9 1.2-3.7 3-4.4 1.8-0.8 3.9-0.4 5.3 1 1.4 1.4 1.8 3.5 1.1 5.3-0.8 1.8-2.6 3-4.5 3v3.2c2.1 0.1 4.2-0.8 5.8-2.3 1.5-1.5 2.4-3.6 2.4-5.8 0-2.1-0.9-4.2-2.4-5.7-1.6-1.5-3.7-2.4-5.8-2.3z"/>
		<path id="Path_3" class="s1" d="m43.7 28.1v-3.2h-4.9v-4.9h-3.2v12.9q0 1.7 0.6 3.1 0.6 1.5 1.8 2.7 1.1 1.1 2.6 1.7 1.5 0.6 3.1 0.6v-3.2q-1 0-1.9-0.4-0.9-0.3-1.6-1-0.6-0.7-1-1.6-0.4-0.9-0.4-1.9v-4.8z"/>
		<path id="Rectangle_1" class="s1" d="m46.9 24.9h3.2v16.1h-3.2z"/>
		<path id="Rectangle_2" class="s1" d="m46.9 20h3.2v3.2h-3.2z"/>
		<path id="Path_4" class="s1" d="m74.4 24.9q-0.9 0-1.8 0.2-1 0.2-1.8 0.6-0.8 0.4-1.6 1-0.7 0.6-1.3 1.4c-1-1.4-2.4-2.4-4-2.9-1.6-0.5-3.4-0.5-5 0.1-1.6 0.5-3 1.5-4 2.9-1 1.4-1.5 3-1.5 4.7v8.1h3.2v-8.1c0-1.2 0.5-2.5 1.4-3.4 0.9-0.9 2.2-1.4 3.5-1.4 1.3 0 2.5 0.5 3.4 1.4 0.9 0.9 1.4 2.2 1.4 3.4v8.1h3.3v-8.1c0-1.2 0.5-2.5 1.4-3.4 0.9-0.9 2.1-1.4 3.4-1.4 1.3 0 2.5 0.5 3.4 1.4 1 0.9 1.5 2.2 1.5 3.4v8.1h3.2v-8.1q0-1.6-0.6-3.1-0.6-1.4-1.8-2.6-1.1-1.1-2.6-1.7c-1-0.4-2-0.6-3.1-0.6z"/>
		<path id="Path_5" class="s1" d="m92.2 24.9c-2.2-0.1-4.2 0.8-5.8 2.3-1.5 1.5-2.4 3.6-2.4 5.7 0 2.2 0.9 4.3 2.4 5.8 1.6 1.5 3.6 2.4 5.8 2.3v-3.2c-1.8 0-3.5-1-4.3-2.6-0.8-1.6-0.7-3.6 0.3-5.1 1.1-1.4 2.9-2.2 4.7-2 1.8 0.3 3.3 1.5 3.9 3.2h-4.6v3.3h7.9c0.3-1.2 0.2-2.4 0-3.6-0.3-1.2-0.9-2.2-1.6-3.2-0.8-0.9-1.7-1.6-2.8-2.2-1.1-0.5-2.3-0.7-3.5-0.7z"/>
	</g>
</svg>
