<svg version="1.2" xmlns="http://www.w3.org/2000/svg" viewBox="0 0 70 46" width="70" height="46">
	<title>variant_logo-svg</title>
	<style>
		.s0 { fill: #333333 } 
	</style>
	<path id="Layer" fill-rule="evenodd" class="s0" d="m2.8 20.5l2.7 5.9 2.7-5.9h2.7l-5.4 11.2-5.4-11.2zm17.1 0h2.4v10.5h-2.4v-1.1q-1.5 1.4-3.2 1.4-2.2 0-3.6-1.6-1.4-1.6-1.4-4 0-2.3 1.4-3.9 1.4-1.6 3.5-1.6 1.9 0 3.3 1.6zm-5.7 5.2q0 1.5 0.8 2.4 0.8 1 2.1 1 1.3 0 2.1-1 0.9-0.9 0.9-2.4 0-1.5-0.9-2.4-0.8-1-2.1-1-1.3 0-2.1 1-0.8 0.9-0.8 2.4zm11.2-5.2h2.4v0.9q0.7-0.7 1.2-1 0.5-0.2 1.2-0.2 1 0 2 0.6l-1.1 2.2q-0.7-0.5-1.3-0.5-2 0-2 3v5.4h-2.4zm11 0v10.5h-2.4v-10.5zm-2.8-4.3q0-0.7 0.4-1.1 0.1-0.1 0.3-0.2 0.1-0.1 0.2-0.2 0.2 0 0.3-0.1 0.2 0 0.3 0 0.7 0 1.2 0.5 0.4 0.4 0.4 1.1 0 0.6-0.4 1.1-0.5 0.5-1.1 0.5-0.7 0-1.2-0.5-0.1-0.1-0.2-0.2 0-0.2-0.1-0.3-0.1-0.2-0.1-0.3 0-0.2 0-0.3zm13.5 4.3h2.5v10.5h-2.5v-1.1q-1.5 1.4-3.2 1.4-2.1 0-3.6-1.6-1.4-1.6-1.4-4 0-2.3 1.4-3.9 1.4-1.6 3.6-1.6 1.8 0 3.2 1.5zm-5.7 5.2q0 1.5 0.8 2.5 0.8 0.9 2.1 0.9 1.3 0 2.2-0.9 0.8-0.9 0.8-2.4 0-1.5-0.8-2.4-0.9-1-2.2-1-1.2 0-2.1 1-0.8 0.9-0.8 2.3zm11.2-5.2h2.4v1q1.3-1.3 2.9-1.3 1.8 0 2.8 1.2 0.9 1 0.9 3.2v6.4h-2.4v-5.9q0-1.5-0.4-2.1-0.5-0.6-1.6-0.6-1.2 0-1.7 0.8-0.5 0.8-0.5 2.7v5.1h-2.4zm14.6 2.2v8.3h-2.4v-8.3h-1.1v-2.2h1.1v-3.8h2.4v3.8h1.9v2.2z"/>
</svg>
