<svg xmlns="http://www.w3.org/2000/svg" viewBox="0 0 343.45 511.21">
  <path fill="#e3dcca" d="M155.67 421.76 90.94 109.52c-7.25-35 8.68-52.16 38.41-58.32s51.18 3.25 58.43 38.23l64.73 312.29c7.25 35-8.68 52.14-38.43 58.3a77.89 77.89 0 0 1-15.75 1.74c-21.49 0-36.78-11.51-42.66-40M165.57 0a233.18 233.18 0 0 0-45.77 5.14C28.05 24.14-12.76 79.33 3.49 157.68l52.77 254.66c16.23 78.37 75.64 112.76 167.37 93.73s132.54-74.16 116.33-152.53L287.17 98.87C273.9 34.96 231.94.3 167.17 0Z" opacity=".2"/>
</svg>
