<svg id="Overhuset" xmlns="http://www.w3.org/2000/svg" viewBox="0 0 343.45 511.21">
	<defs>
		<style>.cls-1{fill:#e3dcca;opacity:0.2}</style>
	</defs>
	<title>O</title>
	<path class="cls-1"
		  d="M556.5,587.1,491.77,274.86c-7.25-35,8.68-52.16,38.41-58.32s51.18,3.25,58.43,38.23l64.73,312.29c7.25,35-8.68,52.14-38.43,58.3a77.89,77.89,0,0,1-15.75,1.74c-21.49,0-36.78-11.51-42.66-40m9.9-421.76a233.18,233.18,0,0,0-45.77,5.14c-91.75,19-132.56,74.19-116.31,152.54l52.77,254.66c16.23,78.37,75.64,112.76,167.37,93.73S757,597.25,740.79,518.88L688,264.21c-13.27-63.91-55.23-98.57-120-98.87Z"
		  transform="translate(-400.83 -165.34)"/>
</svg>
